<?xml version="1.0" encoding="utf-8"?>
<!-- Generator: Adobe Illustrator 16.1.0, SVG Export Plug-In . SVG Version: 6.00 Build 0)  -->
<!DOCTYPE svg PUBLIC "-//W3C//DTD SVG 1.1//EN" "http://www.w3.org/Graphics/SVG/1.1/DTD/svg11.dtd">
<svg version="1.1" id="Layer_1" xmlns="http://www.w3.org/2000/svg" xmlns:xlink="http://www.w3.org/1999/xlink" x="0px" y="0px"
	 width="960px" height="560px" viewBox="0 0 960 560" enable-background="new 0 0 960 560" xml:space="preserve">
<g id="Layer_2">
	<g>
		<path d="M528.734,375.466c0,2.746-1.027,4.252-3.076,4.513c-7.309,0.898-15.786,2.691-25.434,5.385
			c-9.648,2.691-17.178,5.385-22.588,8.077c-2.837,1.407-4.9,2.114-6.188,2.114c-2.064,0-3.096-1.027-3.096-3.077l1.539-20.768
			c-13.59,14.87-30.896,22.306-51.918,22.306c-22.179,0-41.054-8.522-56.629-25.573c-15.576-17.05-23.363-37.497-23.363-61.341
			c0-27.047,8.62-48.938,25.863-65.668c17.24-16.729,38.873-25.094,64.898-25.094c14.87,0,28.585,4.615,41.149,13.845v-63.897
			c0-10.36-1.283-17.141-3.846-20.338c-2.566-3.197-8.461-5.309-17.69-6.333c-2.052-0.261-3.077-1.896-3.077-4.9
			c0-3.398,1.028-5.099,3.086-5.099c12.087-2.818,22.567-6.216,31.438-10.191c8.872-3.972,14.853-7.499,17.94-10.576
			c1.286-1.28,2.634-1.923,4.05-1.923c3.6,0,5.402,1.024,5.402,3.074c-2.053,27.927-3.077,50.218-3.077,66.869v169.285
			c0,8.839,1.28,14.765,3.847,17.773c2.562,3.012,8.46,5.156,17.69,6.438C527.707,370.364,528.734,372.064,528.734,375.466z
			 M469.895,354.941v-98.606c0-6.664-3.879-12.947-11.633-18.844c-7.759-5.895-16.187-8.846-25.287-8.846
			c-37.434,0-56.149,26.314-56.149,78.938c0,20.798,4.486,38.062,13.46,51.796c8.972,13.733,20.768,20.599,35.381,20.599
			c8.332,0,15.894-1.893,22.691-5.682C455.15,370.511,462.329,364.058,469.895,354.941z"/>
	</g>
	<g>
		<path d="M621.225,296.37c0,6.923-1.667,10.384-4.998,10.384l-57.303-1.538v92.299c0,24.104,8.588,36.15,25.768,36.15
			c10.64,0,20.314-2.5,29.034-7.499c1.025,0,1.953,0.672,2.789,2.019c0.832,1.347,1.249,2.789,1.249,4.327
			c0,3.205-4.769,7.531-14.298,12.979c-9.53,5.446-20.243,8.172-32.142,8.172c-14.584,0-26.227-4.456-34.926-13.364
			c-8.701-8.908-13.049-20.671-13.049-35.284v-1.73l0.77-93.452c0-3.588-1.539-5.385-4.615-5.385h-14.613
			c-2.82,0-4.23-1.635-4.23-4.908c0-2.52,1.148-4.405,3.451-5.667c17.762-10.554,33.223-25.418,46.385-44.6
			c1.406-2.058,3.193-3.088,5.37-3.088c3.573,0,5.364,1.027,5.364,3.077l-1.537,36.728h56.533
			C619.558,285.986,621.225,289.448,621.225,296.37z"/>
	</g>
</g>
</svg>
